<svg width="26" height="21" viewBox="0 0 26 21" fill="none" xmlns="http://www.w3.org/2000/svg">
<g clip-path="url(#clip0_589_94)">
<path fill-rule="evenodd" clip-rule="evenodd" d="M20.6783 5.58476C20.6783 6.24757 20.0066 6.78476 19.1783 6.78476C18.35 6.78476 17.6783 6.24757 17.6783 5.58476C17.6783 4.92195 18.35 4.38476 19.1783 4.38476C20.0068 4.38476 20.6783 4.92195 20.6783 5.58476ZM12.5059 14.256C10.2047 14.256 8.33926 12.7637 8.33926 10.9227C8.33926 9.08179 10.2047 7.58945 12.5059 7.58945C14.807 7.58945 16.6725 9.08179 16.6725 10.9227C16.6725 12.7637 14.807 14.256 12.5059 14.256ZM12.5059 5.78757C8.96074 5.78757 6.08691 8.08664 6.08691 10.9227C6.08691 13.7588 8.96074 16.0579 12.5059 16.0579C16.051 16.0579 18.9248 13.7588 18.9248 10.9227C18.9248 8.08664 16.051 5.78757 12.5059 5.78757ZM12.5059 2.7246C15.8436 2.7246 16.2389 2.73476 17.5568 2.78289C18.7756 2.82742 19.4375 2.99023 19.8779 3.12726C20.4613 3.30867 20.8777 3.52539 21.3152 3.87539C21.7527 4.22523 22.0236 4.55835 22.2504 5.02523C22.4215 5.37757 22.6252 5.9071 22.6809 6.8821C22.741 7.93664 22.7537 8.25289 22.7537 10.923C22.7537 13.5932 22.741 13.9094 22.6809 14.9638C22.6252 15.9388 22.4217 16.4684 22.2504 16.8207C22.0236 17.2874 21.7527 17.6205 21.3152 17.9705C20.8779 18.3205 20.4615 18.5373 19.8779 18.7187C19.4375 18.8555 18.7756 19.0185 17.5568 19.063C16.2389 19.1112 15.8436 19.1213 12.5059 19.1213C9.16797 19.1213 8.77266 19.1112 7.45469 19.063C6.23594 19.0185 5.57402 18.8557 5.13359 18.7187C4.5502 18.5373 4.13379 18.3205 3.69629 17.9705C3.25898 17.6207 2.98789 17.2876 2.76113 16.8207C2.59004 16.4684 2.38633 15.9388 2.33066 14.9638C2.27051 13.9093 2.25781 13.593 2.25781 10.923C2.25781 8.25289 2.27051 7.93664 2.33066 6.8821C2.38633 5.9071 2.58984 5.37757 2.76113 5.02523C2.98789 4.55851 3.25879 4.22539 3.69629 3.87539C4.13359 3.52539 4.55 3.30867 5.13359 3.12726C5.57402 2.99039 6.23594 2.82742 7.45469 2.78289C8.77285 2.73476 9.16816 2.7246 12.5059 2.7246ZM12.5059 0.922729C9.11113 0.922729 8.68535 0.934292 7.35215 0.982886C6.02168 1.03148 5.11289 1.20054 4.31797 1.44773C3.4959 1.7032 2.79883 2.04523 2.10391 2.60117C1.40898 3.1571 0.981445 3.71476 0.662109 4.37242C0.353125 5.00851 0.141797 5.73539 0.0810547 6.79976C0.0203125 7.86632 0.00585938 8.20695 0.00585938 10.9227C0.00585938 13.6385 0.0203125 13.9791 0.0810547 15.0457C0.141797 16.1101 0.353125 16.8369 0.662109 17.473C0.981445 18.1307 1.40898 18.6884 2.10391 19.2443C2.79883 19.8002 3.4959 20.1421 4.31797 20.3977C5.11309 20.6449 6.02168 20.814 7.35215 20.8626C8.68535 20.9112 9.11113 20.9227 12.5059 20.9227C15.9006 20.9227 16.3264 20.9112 17.6596 20.8626C18.99 20.814 19.8986 20.6449 20.6938 20.3977C21.5158 20.1421 22.2129 19.8002 22.9078 19.2443C23.6027 18.6884 24.0301 18.1307 24.3496 17.473C24.6586 16.8369 24.8699 16.1101 24.9307 15.0457C24.9914 13.9791 25.0059 13.6385 25.0059 10.9227C25.0059 8.20695 24.9914 7.86632 24.9307 6.79976C24.8699 5.73539 24.6586 5.00851 24.3496 4.37242C24.0301 3.71476 23.6027 3.1571 22.9078 2.60117C22.2129 2.04523 21.5158 1.70335 20.6938 1.44773C19.8986 1.20054 18.99 1.03148 17.6596 0.982886C16.3264 0.934292 15.9006 0.922729 12.5059 0.922729Z" fill="url(#paint0_radial_589_94)"/>
</g>
<defs>
<radialGradient id="paint0_radial_589_94" cx="0" cy="0" r="1" gradientUnits="userSpaceOnUse" gradientTransform="translate(3.7385 20.9922) scale(31.9437 25.555)">
<stop stop-color="#FFB140"/>
<stop offset="0.2559" stop-color="#FF5445"/>
<stop offset="0.599" stop-color="#FC2B82"/>
<stop offset="1" stop-color="#8E40B7"/>
</radialGradient>
<clipPath id="clip0_589_94">
<rect width="25" height="20" fill="white" transform="translate(0.00585938 0.922729)"/>
</clipPath>
</defs>
</svg>
